<svg id="Attention" xmlns="http://www.w3.org/2000/svg" width="57.727" height="51.742" viewBox="0 0 57.727 51.742">
  <g id="Attention_plain">
    <path id="Path_421" data-name="Path 421" d="M76.062,75.787H31.332A6.5,6.5,0,0,1,25.7,66.039L48.066,27.3a6.5,6.5,0,0,1,11.263,0L81.693,66.039a6.5,6.5,0,0,1-5.631,9.749ZM53.7,27.078a3.441,3.441,0,0,0-3,1.743L28.328,67.575a3.441,3.441,0,0,0,3,5.207H76.062a3.441,3.441,0,0,0,3-5.207L56.7,28.81a3.441,3.441,0,0,0-3-1.732Z" transform="translate(-24.833 -24.046)" fill="#fff"/>
    <path id="Path_422" data-name="Path 422" d="M75.967,68.179,53.6,29.437a.745.745,0,0,0-1.285,0L29.953,68.179a.723.723,0,0,0,0,.745.734.734,0,0,0,.642.367H75.325a.734.734,0,0,0,.642-.367A.723.723,0,0,0,75.967,68.179Zm-25.3-25.966h4.588V48.12L54.107,57.6H51.813L50.666,48.12Zm4.714,22.33H50.54V59.8h4.84Z" transform="translate(-24.096 -23.308)" fill="#fff"/>
  </g>
</svg>
