 <svg
      id="Cart_Drawer"
      data-name="Cart Drawer"
      xmlns="http://www.w3.org/2000/svg"
      width="89.594"
      height="72.491"
      viewBox="0 0 28.594 22.491"
    >
      <g id="Cart_plain" transform="translate(-9.545 -7.004)">
        <path
          id="Purchase_plain"
          d="M46.99,42.016c.715-1.567,3.368-7.472,3.368-7.472.251-.559.522-1.117.752-1.676a.809.809,0,0,0-.58-1.149,1.994,1.994,0,0,0-.334,0H29.956a.8.8,0,0,1-.8-.58c-.193-.569-.392-1.133-.59-1.7l-.11-.3a.862.862,0,0,0-.945-.684H23.33a.82.82,0,0,0-.621.418.783.783,0,0,0-.037.736.809.809,0,0,0,.82.491h2.971a.752.752,0,0,1,.762.522c.183.522.366,1.044.554,1.567l4.679,13.363.272.94h-3.29a2.219,2.219,0,0,0-.026,4.433h.115a2.23,2.23,0,0,0,2.157-2l.068-.757H45.006a.71.71,0,0,1,.82.736A2.209,2.209,0,0,0,48.05,50.94h.225a2.193,2.193,0,0,0,1.687-1.117,2.219,2.219,0,0,0-2-3.332H35.136a.8.8,0,0,1-.794-.522c-.115-.366-.245-.726-.371-1.081l-.151-.433-.23-.856s11.378-.888,12.532-.956A.909.909,0,0,0,46.99,42.016Z"
          transform="translate(-13.052 -21.445)"
          fill="#707070"
        ></path>
      </g>
    </svg>