<svg id="Delete" xmlns="http://www.w3.org/2000/svg" width="34" height="34" viewBox="0 0 34 34">
  <g id="Delete_plain" transform="translate(0)">
    <circle id="Ellipse_81" data-name="Ellipse 81" cx="17" cy="17" r="17" transform="translate(0)" fill="none"/>
    <path id="Path_960" data-name="Path 960" d="M43.015,26.756a11.068,11.068,0,0,0-4.791-1.316,2.587,2.587,0,0,0-2.513-2.04,2.553,2.553,0,0,0-2.492,2.04,11.119,11.119,0,0,0-4.787,1.316l-.133.075.109.921H42.944l.112-.969Zm-7.3-1.452c-.449,0-.921.02-1.36.041a1.441,1.441,0,0,1,2.72,0C36.616,25.324,36.164,25.3,35.712,25.3Z" transform="translate(-18.78 -15.58)" fill="#08107b"/>
    <path id="Path_961" data-name="Path 961" d="M29.359,38.217H28.9l.184,1.187h.745l1.428,11.4a.507.507,0,0,0,.5.445h8.735A.507.507,0,0,0,41,50.8l1.431-11.41-.027.027v-.044h.68l.184-1.166H29.359Zm4.24,10.69h-.041a.473.473,0,0,1-.473-.432l-.588-7.14a.473.473,0,1,1,.942-.078l.592,7.14a.456.456,0,0,1-.432.51Zm2.982-.469a.466.466,0,0,1-.473.469.476.476,0,0,1-.469-.469V41.3a.462.462,0,0,1,.469-.469.476.476,0,0,1,.473.469Zm2.55.037a.466.466,0,0,1-.469.432h-.041a.479.479,0,0,1-.432-.51l.588-7.14a.473.473,0,1,1,.942.078Z" transform="translate(-19.176 -25.355)" fill="#08107b"/>
  </g>
</svg>
