<svg id="Documentation_inverse" xmlns="http://www.w3.org/2000/svg" width="68" height="68" viewBox="0 0 68 68">
  <path id="Path_1150" data-name="Path 1150" d="M31.633,56.715V31.14H30.185a.075.075,0,0,0-.075.075V60a.075.075,0,0,0,.075.075H53.631A.075.075,0,0,0,53.706,60V58.721H33.639a2.04,2.04,0,0,1-2.006-2.006Z" transform="translate(-9.635 -9.965)" fill="#08107b"/>
  <path id="Path_1151" data-name="Path 1151" d="M35.265,26.31a.075.075,0,0,0-.075.075V55.169a.075.075,0,0,0,.075.075H58.711a.075.075,0,0,0,.075-.075V26.385a.075.075,0,0,0-.075-.075ZM51.612,51.259H38.182v-1.2h13.43Zm4.182-2.944H38.182v-1.2H55.794Zm0-3.046H38.182v-1.2H55.794Zm0-3.04H38.182v-1.17H55.794Zm0-4.794H38.182v-1.2H55.794Zm0-3.04H38.182V33.2H55.794Zm0-3.046H38.182v-1.17H55.794Z" transform="translate(-11.261 -8.419)" fill="#08107b"/>
  <path id="Path_1152" data-name="Path 1152" d="M34,0A34,34,0,1,0,68,34,34,34,0,0,0,34,0ZM49.456,46.75a2.04,2.04,0,0,1-2.04,2.04H46v1.278a2.04,2.04,0,0,1-2.04,2.04H20.55a2.04,2.04,0,0,1-2.006-2.04V21.25a2.04,2.04,0,0,1,2.006-2.006H22V17.966A2.04,2.04,0,0,1,24,15.926H47.45a2.04,2.04,0,0,1,2.04,2.04Z" fill="#08107b"/>
</svg>
