<svg id="Endoscope" xmlns="http://www.w3.org/2000/svg" width="68" height="68" viewBox="0 0 68 68">
  <path id="Endoscope_inverse" d="M34,0A34,34,0,1,0,68,34,34.012,34.012,0,0,0,34,0ZM55.624,30.124l-.476.748c-.272.476-.68,1.224-.816,1.5.068.068.136.068.2.136a1.17,1.17,0,0,1,.136.816c-.068.136-.068.272-.136.408a1.312,1.312,0,0,1,.2.68v.544a8.23,8.23,0,0,1-.068,1.292.671.671,0,0,1-.68.612l-.272.544-.2.408c-.068.068-.2.408-.544.952l.612.476h0a.87.87,0,0,1,.2,1.224.781.781,0,0,1-.748.408,1.6,1.6,0,0,1-.544-.136l-.476-.34a2.067,2.067,0,0,1-.34.476l-.612.612a10.458,10.458,0,0,0-.816.884c-.136.272-.34.544-.476.884A20.855,20.855,0,0,1,44.948,49.3a19.934,19.934,0,1,1,2.516-28.152h.816a13.147,13.147,0,0,1,3.332,2.108l.272.2-.2.748c-.408.952-.884,2.04-.952,2.244-.068.136-.068.34-2.584,2.176l-.272.2L45.628,27.2l-4.216,1.428-.272.748-1.224.748-1.632-.2-8.976,2.924c-1.564.816-5.168,2.924-6.46,6.052a4.639,4.639,0,0,0,.2,4.42c.952,1.36,2.924,2.04,5.712,2.04h.748c5.168-.2,11.084-2.652,13.736-5.644a3.763,3.763,0,0,0,1.224-2.72c-.136-1.564-1.224-2.516-3.2-2.856A8.355,8.355,0,0,0,39.44,34c-4.284,0-8.568,2.38-9.52,4.42a.819.819,0,0,1-.68.476c-.136,0-.2,0-.272-.068h0a.777.777,0,0,1-.408-1.02c.748-1.7,2.788-3.264,5.44-4.284a15.577,15.577,0,0,1,5.576-1.02,19.211,19.211,0,0,1,1.972.136c2.652.476,4.284,2.04,4.42,4.216a5.146,5.146,0,0,1-1.632,3.808c-2.924,3.264-9.248,5.916-14.824,6.12H28.7c-4.148,0-6.052-1.5-6.936-2.72a6.168,6.168,0,0,1-.34-5.848,13.483,13.483,0,0,1,4.9-5.44,25.779,25.779,0,0,1,2.312-1.36l.408-.2C38.284,26.52,43.316,24,44,23.8a4.439,4.439,0,0,0,.68-1.02l.272-.476a17.7,17.7,0,0,0-2.516-3.06A17.958,17.958,0,1,0,44.88,46.716a.939.939,0,0,1,.2-.272,13.857,13.857,0,0,0,1.768-2.652l.136-.476a18.5,18.5,0,0,0,.884-3.332,8.733,8.733,0,0,1,.68-2.924c.272-.612.816-1.836,1.02-2.38a.715.715,0,0,1,0-.884A5.712,5.712,0,0,1,51.816,32.5h.136c.2-.34.476-.816,1.02-.816h.2c.136.068.2.068.34.136a9.074,9.074,0,0,0,.816-1.428,6.941,6.941,0,0,1,.612-1.088.411.411,0,0,1,.408-.2.374.374,0,0,1,.34.2h-.068C55.828,29.58,55.76,29.784,55.624,30.124Z" fill="#08107b"/>
</svg>
