<svg id="Endoscope" xmlns="http://www.w3.org/2000/svg" width="100" height="100" viewBox="0 0 100 100">
  <g id="Endoscope_plain" transform="translate(-597 -10786)">
    <circle id="Ellipse_113" data-name="Ellipse 113" cx="50" cy="50" r="50" transform="translate(597 10786)" fill="none"/>
    <path id="Endoscope_plain-2" data-name="Endoscope_plain" d="M82,43.2a.55.55,0,0,0-.5-.3.864.864,0,0,0-.6.3c-.1.1-.4.7-.9,1.6a13.344,13.344,0,0,1-1.2,2.1.764.764,0,0,0-.5-.2H78c-.7,0-1.2.7-1.5,1.2h-.2A10.91,10.91,0,0,0,73,49.8a1.051,1.051,0,0,0,0,1.3c-.3.8-1.1,2.6-1.5,3.5a10.815,10.815,0,0,0-1,4.3,27.2,27.2,0,0,1-1.3,4.9l-.2.7a20.379,20.379,0,0,1-2.6,3.9c-.1.1-.2.3-.3.4a26.446,26.446,0,1,1-3.6-40.5,23.375,23.375,0,0,1,3.7,4.5l-.4.7a5.6,5.6,0,0,1-1,1.5c-1.1.4-8.5,4-22,10.9l-.6.3a37.911,37.911,0,0,0-3.4,2,19.207,19.207,0,0,0-7.2,8,9.055,9.055,0,0,0,.5,8.6c1.3,1.8,4.1,4,10.2,4h1.2c8.2-.4,17.5-4.2,21.8-9a7.964,7.964,0,0,0,2.4-5.6C67.3,51,65,48.8,61,48.1a14.154,14.154,0,0,0-2.9-.2,23.311,23.311,0,0,0-8.2,1.5c-4,1.5-6.9,3.8-8,6.3a1.179,1.179,0,0,0,.6,1.5h0a.6.6,0,0,0,.4.1,1.2,1.2,0,0,0,1-.7c1.4-3.1,7.7-6.5,14-6.5a24.518,24.518,0,0,1,2.7.2c3,.5,4.6,2,4.7,4.2a5.534,5.534,0,0,1-1.8,4c-3.9,4.4-12.6,7.9-20.2,8.3H42.2c-4.1,0-7-1-8.4-3a6.821,6.821,0,0,1-.3-6.5c1.9-4.6,7.2-7.7,9.5-8.9L56.3,44l2.3.2,1.8-1.1.4-1.1L67,39.9l3.3,2.4.4-.3c3.7-2.6,3.8-2.9,3.8-3.2.1-.2.7-1.9,1.4-3.3l.3-1.1-.4-.3A19.334,19.334,0,0,0,70.9,31H69.7a29.373,29.373,0,1,0-3.4,41.5,30.669,30.669,0,0,0,7.1-8.9,5.387,5.387,0,0,0,.7-1.3A4.894,4.894,0,0,1,75.3,61l.9-.9a4.234,4.234,0,0,0,.5-.7l.7.5a1.077,1.077,0,0,0,.8.2,1.382,1.382,0,0,0,1.1-.6,1.28,1.28,0,0,0-.3-1.8h0l-.9-.7a8.766,8.766,0,0,1,.8-1.4,1.628,1.628,0,0,0,.3-.6l.4-.8a1.063,1.063,0,0,0,1-.9,12.1,12.1,0,0,0,.1-1.9v-.8a1.689,1.689,0,0,0-.3-1,1.421,1.421,0,0,0,.2-.6,1.721,1.721,0,0,0-.2-1.2c-.1-.1-.2-.1-.3-.2.2-.4.8-1.5,1.2-2.2l.7-1.1a3.977,3.977,0,0,0,0-1.1" transform="translate(597.011 10786.402)" fill="#fff" fill-rule="evenodd"/>
  </g>
</svg>
