<svg id="Logo" xmlns="http://www.w3.org/2000/svg" width="186.483" height="35.236" viewBox="0 0 186.483 35.236">
  <path id="Path_100" data-name="Path 100" d="M93.175,143.608h8.931v16.6h11.23v4.826H93.175Z" transform="translate(-60.915 -142.786)" fill="#08107b"/>
  <path id="Path_101" data-name="Path 101" d="M197.237,165.9c-6.96,0-12.816-2.071-12.816-7.778V143.609h8.645V157.46c0,2.684,1.983,3.907,4.171,3.907s4.17-1.223,4.17-3.907V143.609h8.643v14.513c0,5.707-5.852,7.778-12.813,7.778" transform="translate(-52.16 -142.786)" fill="#08107b"/>
  <path id="Path_102" data-name="Path 102" d="M225.737,149.368h9.134c-.479-4.921-7.407-6.391-12.775-6.391s-12.361,1.756-12.361,7.126c0,3.924,3.839,5.179,6.532,5.724,1.911.385,5.1.928,6.69,1.278,2.218.485,3.363.936,3.363,2.243,0,1.395-1.288,2.111-3.935,2.111-2.508,0-4.008-.78-4.424-2.548h-9.308c.546,5.839,8.028,7.116,13.931,7.116,5.94,0,13.039-1.416,13.039-7.2,0-3.14-2.023-5.233-7-6.228-2.607-.521-6.222-1.2-7.61-1.439-1.841-.32-2.5-.982-2.5-1.89,0-.932.893-1.912,3.475-1.912,2.182,0,3.362.636,3.751,2.011" transform="translate(-49.841 -142.849)" fill="#08107b"/>
  <path id="Path_103" data-name="Path 103" d="M177.178,157.147c6.431,0,8.067-4.088,8.067-6.7,0-2.406-1.383-6.838-8.059-6.838H159.9v21.431h8.486v-7.89Zm-8.794-4.678v-4.178h5.667c1.411,0,2.618.66,2.618,2.019,0,1.2-.693,2.159-2.629,2.159Z" transform="translate(-54.513 -142.786)" fill="#08107b"/>
  <path id="Path_104" data-name="Path 104" d="M122.9,144.128l.243-.52H132.1l-9.324,14.216v7.215H114.3v-7.215l-9.295-14.216h8.929l.25.52,4.04,7.1c.266.455.345.455.64,0Z" transform="translate(-59.785 -142.786)" fill="#08107b"/>
  <path id="Path_105" data-name="Path 105" d="M147.459,165.039l.158-.425,4.554-10.59c.119-.278.391-.2.4.04v10.975h7.311v-21.43H151.04l-.163.461-5.445,12.294c-.2.466-.386.463-.589,0L139.4,144.07l-.163-.461H130.4v21.43h7.314V154.064c0-.242.277-.318.395-.04l4.55,10.59.162.425Z" transform="translate(-57.352 -142.786)" fill="#08107b"/>
  <path id="Path_106" data-name="Path 106" d="M94.061,154.4c0,7.2-6.245,11.537-14.955,11.537S64.153,161.6,64.153,154.4s6.241-11.539,14.952-11.539,14.955,4.334,14.955,11.539m-8.992,0c0-4.337-2.242-7.012-5.963-7.012s-5.963,2.675-5.963,7.012,2.243,7.008,5.963,7.008,5.963-2.674,5.963-7.008" transform="translate(-63.703 -142.861)" fill="#08107b"/>
  <path id="Path_107" data-name="Path 107" d="M63.744,173.125l93.241,2.408,93.242-2.408v-1.1l-93.242-2.411-93.241,2.411Z" transform="translate(-63.744 -140.297)" fill="#e9b225"/>
</svg>
