<svg id="Maintenance" xmlns="http://www.w3.org/2000/svg" width="40" height="40.002" viewBox="0 0 40 40.002">
  <path id="Maintenance_inverse" d="M28.22,1.758A20,20,0,1,0,40,19.993,20,20,0,0,0,28.22,1.758Zm-4,24.2a10.868,10.868,0,0,1-1.7.8v1.9a7.64,7.64,0,0,1-1.468.34l-.24.032-.716-1.8a7.908,7.908,0,0,1-1.876-.14l-.944,1.7a8.984,8.984,0,0,1-1.636-.564l.236-1.884a8.7,8.7,0,0,1-1.556-1.064l-1.632.948a10.612,10.612,0,0,1-1.148-1.312l1.168-1.472a11.2,11.2,0,0,1-.8-1.7h-1.9a7.64,7.64,0,0,1-.344-1.468l-.032-.24,1.808-.728a7.876,7.876,0,0,1,.14-1.872l-1.7-.956a9.412,9.412,0,0,1,.564-1.636l1.888.236a8.824,8.824,0,0,1,1.06-1.556L12.444,11.9a10.632,10.632,0,0,1,1.312-1.152l1.472,1.172a11.2,11.2,0,0,1,1.7-.8v-1.9A7.352,7.352,0,0,1,18.4,8.869l.24-.032.728,1.8a7.876,7.876,0,0,1,1.872.144L22.188,9.1a9.412,9.412,0,0,1,1.636.564l-.236,1.888a8.824,8.824,0,0,1,1.556,1.06l1.624-1a10.912,10.912,0,0,1,1.148,1.312l-1.184,1.468a11.26,11.26,0,0,1,.8,1.7h1.852a7.6,7.6,0,0,1,.344,1.464.755.755,0,0,0,.032.24L28,18.525a12.5,12.5,0,0,1-.136,1.92l1.688.948a9.2,9.2,0,0,1-.564,1.636l-1.872-.236s-1.232-1.112-1.792-1.644a6.06,6.06,0,1,0-2.692,3.04l1.744,1.684Zm7.408,5.2a1.26,1.26,0,0,1-.868-.252s-.1-.088-.14-.128c-4.308-4.112-6.62-6.348-8.936-8.592a.712.712,0,0,0-.936-.192,3.044,3.044,0,0,1-4.272-2.14c.956.308,1.944.632,2.3.756a.332.332,0,0,0,.4-.08c.4-.42.844-.82,1.26-1.24a.356.356,0,0,0,.088-.264c-.08-.616-.168-1.232-.272-1.844a.328.328,0,0,0-.2-.192c-.372-.132-1.38-.46-2.352-.776a3.032,3.032,0,0,1,3.372-.444,3.236,3.236,0,0,1,1.748,3.316,1.132,1.132,0,0,0,.4,1.136C25.6,22.465,27.944,24.7,32.3,28.9a1.368,1.368,0,0,1,.46.892,1.248,1.248,0,0,1-1.128,1.356Z" transform="translate(0 0.011)" fill="#08107b"/>
</svg>
