<svg xmlns="http://www.w3.org/2000/svg" width="50.348" height="50.351" viewBox="0 0 50.348 50.351">
  <g id="Icon" transform="translate(-1702.231 -540.455)">
    <g id="Plus" transform="translate(1702.231 540.455)">
      <g id="Plus_frame" transform="translate(0)">
        <path id="Path_1566" data-name="Path 1566" d="M35.525,2.213A25.174,25.174,0,1,0,50.348,25.166,25.174,25.174,0,0,0,35.525,2.213ZM25.174,48.422A23.256,23.256,0,1,1,48.43,25.166,23.256,23.256,0,0,1,25.174,48.422Z" transform="translate(0 0.015)" fill="#08107b"/>
        <path id="Path_1567" data-name="Path 1567" d="M37.3,34.574V21.68H34.574l-.005,12.894L21.68,34.569V37.3H34.569V50.2H37.3L37.3,37.3H50.2L50.2,34.574Z" transform="translate(-10.764 -10.757)" fill="#08107b"/>
      </g>
    </g>
  </g>
</svg>
