<svg xmlns="http://www.w3.org/2000/svg" width="13.052" height="21.797" viewBox="0 0 13.052 21.797">
  <path id="Path_4013" data-name="Path 4013" d="M7.222-3.047h2.915V0H7.222ZM2.285-14.78a7.186,7.186,0,0,1,1.787-5.09A6.365,6.365,0,0,1,8.979-21.8,6.435,6.435,0,0,1,13.6-20.149a5.552,5.552,0,0,1,1.736,4.211,4.5,4.5,0,0,1-.637,2.52,20.056,20.056,0,0,1-2.571,2.842,8.222,8.222,0,0,0-1.824,2.307,7.2,7.2,0,0,0-.417,2.791H7.28a9.5,9.5,0,0,1,.5-3.376,9.1,9.1,0,0,1,2.183-2.937l1.172-1.157a4.849,4.849,0,0,0,.85-1.04,3.722,3.722,0,0,0,.586-1.978,3.828,3.828,0,0,0-.857-2.49,3.45,3.45,0,0,0-2.834-1.055A3.466,3.466,0,0,0,5.493-17.7a7.044,7.044,0,0,0-.6,2.915Z" transform="translate(-2.285 21.797)" fill="#fff"/>
</svg>
