<svg id="Stock" xmlns="http://www.w3.org/2000/svg" width="100" height="100" viewBox="0 0 100 100">
  <g id="Stock_plain" transform="translate(-1.4 0.6)">
    <circle id="Ellipse_173" data-name="Ellipse 173" cx="50" cy="50" r="50" transform="translate(1.4 -0.6)" fill="none"/>
    <path id="Path_2040" data-name="Path 2040" d="M28,71.2h5.6a.645.645,0,0,0,.6-.6V66.9H47.9v3.7a.645.645,0,0,0,.6.6h5.6a.645.645,0,0,0,.6-.6V66.9H68.4v3.7a.645.645,0,0,0,.6.6h5.6a.645.645,0,0,0,.6-.6V62.2a.645.645,0,0,0-.6-.6H28a.645.645,0,0,0-.6.6v8.4A.53.53,0,0,0,28,71.2Z" fill="#fff"/>
    <path id="Path_2041" data-name="Path 2041" d="M53.1,58.8H68.5a.9.9,0,0,0,.9-.9V45.6a.9.9,0,0,0-.9-.9H63.9V50l-1.5-1.4L60.8,50l-1.5-1.4L57.7,50V44.7H53.1a.9.9,0,0,0-.9.9V58A.882.882,0,0,0,53.1,58.8Z" fill="#fff"/>
    <path id="Path_2042" data-name="Path 2042" d="M33.8,58.8H49.2a.9.9,0,0,0,.9-.9V45.6a.9.9,0,0,0-.9-.9H44.6V50L43,48.6,41.5,50,40,48.6,38.4,50V44.7H33.8a.9.9,0,0,0-.9.9V58A.882.882,0,0,0,33.8,58.8Z" fill="#fff"/>
    <path id="Path_2043" data-name="Path 2043" d="M33.8,42.5H49.2a.9.9,0,0,0,.9-.9V29.3a.9.9,0,0,0-.9-.9H44.6v5.3L43,32.3l-1.5,1.4L40,32.3l-1.5,1.4V28.4H33.9a.9.9,0,0,0-.9.9V41.7C32.9,42.1,33.3,42.5,33.8,42.5Z" fill="#fff"/>
  </g>
</svg>
