<svg id="Stock" xmlns="http://www.w3.org/2000/svg" width="80" height="80" viewBox="0 0 80 80">
  <path id="Stock_inverse" d="M40,0A40,40,0,1,0,80,40,40.015,40.015,0,0,0,40,0Zm1.76,36.48a.717.717,0,0,1,.72-.72h3.68V40l1.2-1.12L48.56,40l1.2-1.12L50.96,40V35.76h3.68a.717.717,0,0,1,.72.72V46.4a.717.717,0,0,1-.72.72H42.48a.717.717,0,0,1-.72-.72V36.48ZM26.32,23.44a.717.717,0,0,1,.72-.72h3.68v4.24l1.2-1.12,1.2,1.12,1.2-1.12,1.2,1.12V22.72H39.2a.717.717,0,0,1,.72.72v9.92a.717.717,0,0,1-.72.72H27.04a.717.717,0,0,1-.72-.72V23.44Zm0,13.04a.717.717,0,0,1,.72-.72h3.68V40l1.2-1.12L33.12,40l1.2-1.12L35.52,40V35.76H39.2a.717.717,0,0,1,.72.72V46.4a.717.717,0,0,1-.72.72H27.04a.717.717,0,0,1-.72-.72V36.48Zm33.6,16.56v3.44a.516.516,0,0,1-.48.48H54.96a.516.516,0,0,1-.48-.48V53.52H43.6v2.96a.516.516,0,0,1-.48.48H38.64a.516.516,0,0,1-.48-.48V53.52H27.28v2.96a.516.516,0,0,1-.48.48H22.4a.516.516,0,0,1-.48-.48V49.76a.516.516,0,0,1,.48-.48H59.44a.516.516,0,0,1,.48.48Z" fill="#08107b"/>
</svg>
