<svg id="Study_Overview" data-name="Study Overview" xmlns="http://www.w3.org/2000/svg" width="40" height="40.002" viewBox="0 0 40 40.002">
  <path id="Study-Overview_Icon_inverse" d="M28.22,1.758A20,20,0,1,0,40,19.993,20,20,0,0,0,28.22,1.758Zm-.956,25.092a5.328,5.328,0,0,1-1.368.824,8.425,8.425,0,0,1-.916.344,14.052,14.052,0,0,1-2.132.488c-.58.088-1.164.152-1.756.184a19.016,19.016,0,0,1-3.892-.184c-.22-.032-.436-.06-.652-.1a9.636,9.636,0,0,1-3.272-1.156,2.864,2.864,0,0,1-.964-.88,1.428,1.428,0,0,1-.228-.864c.028-.444.052-.884.076-1.328.036-.652.072-3.272.108-3.924v-.24a1.685,1.685,0,0,1,.028-.368l.148.032,1.224.4.6.192L19.356,21.9a2.036,2.036,0,0,0,1.264,0l3.732-1.2.488-.156c.308-.092.62-.188.924-.288h.068c.54-.176,1.076-.364,1.6-.544.068-.024.144-.04.248-.068.024.44.052.848.072,1.256.048.8.076,3.6.144,4.4A1.72,1.72,0,0,1,27.264,26.849Zm6.8-10.488a1.832,1.832,0,0,1-.232.088l-8.1,2.536-.856.272-1.7.536-.252.076-1.2.4-.484.124c-.332.1-.664.224-.988.344a.84.84,0,0,1-.592-.02l-1.42-.468c-.356-.12-.716-.24-1.072-.352-1.736-.556-3.476-1.1-5.2-1.656l-1.844-.568-.368-.116v3.816a.976.976,0,0,1,.488.828h0a.968.968,0,0,1-.324.728l.48,1.52a.928.928,0,0,1-.888,1.2H9.028a.932.932,0,0,1-.884-1.2l.48-1.468a.984.984,0,0,1-.348-.748h0a.984.984,0,0,1,.488-.828v-4.16l-1.4-.452-1.276-.4c-.244-.076-.348-.2-.344-.4s.1-.328.352-.4l1.268-.4,6.8-2.128c1.868-.588,3.736-1.2,5.6-1.756a.8.8,0,0,1,.48,0c.9.276,1.792.56,2.684.84l1.956.612.712.224,3.2,1,4.988,1.572a1.352,1.352,0,0,1,.252.092.364.364,0,0,1,.22.356.372.372,0,0,1-.212.36Z" transform="translate(0 0.011)" fill="#08107b"/>
</svg>
