<svg id="Icon_-_Support" data-name="Icon - Support" xmlns="http://www.w3.org/2000/svg" width="40" height="40" viewBox="0 0 40 40">
  <circle id="Ellipse_179" data-name="Ellipse 179" cx="20" cy="20" r="20" fill="#08107b"/>
  <path id="Union_5" data-name="Union 5" d="M-1248.267-3244.738a13.58,13.58,0,0,1-2.5-1.027,17.811,17.811,0,0,1-2.422-1.551,21.061,21.061,0,0,1-2.235-1.958,21.548,21.548,0,0,1-1.937-2.244,17.757,17.757,0,0,1-1.533-2.422,13.793,13.793,0,0,1-1.007-2.477,8.674,8.674,0,0,1-.365-2.427,5.88,5.88,0,0,1,.153-1.437,4.135,4.135,0,0,1,.461-1.112,5.579,5.579,0,0,1,.737-.954c.277-.29.6-.616.96-.969a2.388,2.388,0,0,1,.752-.508,2.3,2.3,0,0,1,.908-.182,2.317,2.317,0,0,1,.9.181,2.4,2.4,0,0,1,.76.511l2.046,2.046a2.277,2.277,0,0,1,.506.764,2.362,2.362,0,0,1,.176.9,2.111,2.111,0,0,1-.164.848,2.918,2.918,0,0,1-.383.647,3.727,3.727,0,0,1-.489.515c-.162.142-.305.273-.435.4a2.393,2.393,0,0,0-.307.368.5.5,0,0,0-.09.286.529.529,0,0,0,.164.395l5.124,5.125a.527.527,0,0,0,.394.163.5.5,0,0,0,.286-.089,2.5,2.5,0,0,0,.368-.307c.133-.133.269-.279.406-.436a3.768,3.768,0,0,1,.513-.49,2.917,2.917,0,0,1,.648-.383,2.11,2.11,0,0,1,.849-.164,2.372,2.372,0,0,1,.9.175,2.311,2.311,0,0,1,.763.507l2.045,2.046a2.294,2.294,0,0,1,.507.764,2.373,2.373,0,0,1,.175.9,2.372,2.372,0,0,1-.175.9,2.284,2.284,0,0,1-.507.764c-.352.359-.681.683-.973.959a5.756,5.756,0,0,1-.952.735,4.046,4.046,0,0,1-1.113.462,5.937,5.937,0,0,1-1.441.153A8.736,8.736,0,0,1-1248.267-3244.738Z" transform="translate(1270.262 3274.005)" fill="#fff"/>
</svg>
