<svg xmlns="http://www.w3.org/2000/svg" width="80" height="80" viewBox="0 0 80 80">
  <g id="Tracking" transform="translate(0 0)">
    <g id="Tracking_inverse" transform="translate(0 0)">
      <path id="Path_1765" data-name="Path 1765" d="M33,64.34a3.35,3.35,0,1,0,0,6.69h0a3.33,3.33,0,1,0,0-6.65Z" transform="translate(-6.34 -13.791)" fill="#08107b"/>
      <path id="Path_1766" data-name="Path 1766" d="M67.24,64.34a3.35,3.35,0,1,0,0,6.69h0a3.33,3.33,0,1,0,0-6.65Z" transform="translate(-13.707 -13.791)" fill="#08107b"/>
      <path id="Path_1767" data-name="Path 1767" d="M55.39,36.35a5,5,0,0,0-10,0h0a5,5,0,1,0,10,0Z" transform="translate(-10.087 -6.967)" fill="#08107b"/>
      <path id="Path_1768" data-name="Path 1768" d="M40,0A40,40,0,1,0,80,40,40,40,0,0,0,40,0Zm.3,20a9.24,9.24,0,0,1,9.24,9.192c0,6.712-6.4,15.2-8.544,17.84a1.16,1.16,0,0,1-.144.136.888.888,0,0,1-1.24-.136c-2.144-2.656-8.544-11.128-8.544-17.84A9.232,9.232,0,0,1,40.3,20ZM61.368,58.9V56H57.816A4.52,4.52,0,0,1,49.7,56H44.312A4.528,4.528,0,0,1,36.2,56H30.336a4.52,4.52,0,0,1-8.1,0H16.92V53.12h5.048a4.52,4.52,0,0,1,8.728,0h5.248a4.52,4.52,0,0,1,8.728,0h4.712a4.52,4.52,0,0,1,8.728,0H61.36V50.248l6.912,4.32Z" fill="#08107b"/>
    </g>
  </g>
</svg>
