<svg xmlns="http://www.w3.org/2000/svg" width="22" height="23.393" viewBox="0 0 22 23.393">
  <g id="User_Icon" data-name="User Icon" transform="translate(0 0)">
    <path id="Subtraction_6" data-name="Subtraction 6" d="M20.248,9.387a9.388,9.388,0,0,0-18.5,0h18.5M22,11H0a11,11,0,0,1,22,0Z" transform="translate(0 12.393)" fill="#08107b"/>
    <path id="Ellipse_144" data-name="Ellipse 144" d="M5.793,1.613a4.18,4.18,0,1,0,4.18,4.18,4.184,4.184,0,0,0-4.18-4.18M5.793,0A5.793,5.793,0,1,1,0,5.793,5.793,5.793,0,0,1,5.793,0Z" transform="translate(4.84 0)" fill="#08107b"/>
  </g>
</svg>
