<svg xmlns="http://www.w3.org/2000/svg" width="68.002" height="59.739" viewBox="0 0 68.002 59.739">
  <g id="Group_4999" data-name="Group 4999" transform="translate(-48.999 -31)">
    <path id="Subtraction_13" data-name="Subtraction 13" d="M-1023.216-9631.261h0a34.27,34.27,0,0,1-4.885-5.2,34.06,34.06,0,0,1-3.713-6.146A33.7,33.7,0,0,1-1035-9657a33.781,33.781,0,0,1,2.672-13.234,33.894,33.894,0,0,1,7.287-10.809,33.906,33.906,0,0,1,10.808-7.286A33.806,33.806,0,0,1-1001-9691a33.805,33.805,0,0,1,13.235,2.672,33.908,33.908,0,0,1,10.808,7.286,33.9,33.9,0,0,1,7.287,10.809A33.782,33.782,0,0,1-967-9657a33.726,33.726,0,0,1-2.97,13.915,33.879,33.879,0,0,1-8.05,11.142,29.379,29.379,0,0,0-8.88-13.014,21.346,21.346,0,0,0-13.6-5.044,21.392,21.392,0,0,0-13.849,5.249,29.645,29.645,0,0,0-8.867,13.488ZM-1000.5-9676a11.427,11.427,0,0,0-8.133,3.367A11.422,11.422,0,0,0-1012-9664.5a11.422,11.422,0,0,0,3.369,8.132A11.427,11.427,0,0,0-1000.5-9653a11.424,11.424,0,0,0,8.131-3.367A11.422,11.422,0,0,0-989-9664.5a11.422,11.422,0,0,0-3.368-8.132A11.424,11.424,0,0,0-1000.5-9676Z" transform="translate(1084 9722)" fill="#08107b"/>
  </g>
</svg>
